<?xml version="1.0" standalone="no"?>
<!DOCTYPE svg PUBLIC "-//W3C//DTD SVG 20010904//EN"
 "http://www.w3.org/TR/2001/REC-SVG-20010904/DTD/svg10.dtd">
<svg version="1.0" xmlns="http://www.w3.org/2000/svg"
 width="432.000000pt" height="138.000000pt" viewBox="0 0 432.000000 138.000000"
 preserveAspectRatio="xMidYMid meet">

<g transform="translate(0.000000,138.000000) scale(0.100000,-0.100000)"
fill="#000000" stroke="none">
<path d="M700 1132 c-8 -3 -48 -27 -88 -54 -105 -71 -168 -98 -227 -98 -63 0
-91 19 -105 70 -11 41 -33 53 -44 24 -13 -33 -5 -56 35 -99 l42 -45 71 0 c62
0 81 5 158 42 49 23 91 38 94 35 4 -3 -5 -44 -19 -89 -19 -62 -47 -115 -108
-208 -135 -206 -157 -258 -129 -311 12 -21 50 -25 80 -9 31 17 64 85 125 255
64 178 99 239 195 337 107 109 155 103 155 -20 -1 -54 -15 -112 -74 -302 -40
-129 -75 -243 -78 -252 -8 -30 25 -21 42 11 8 16 46 122 85 236 79 232 96 269
147 326 44 48 81 69 123 69 106 0 102 -55 -35 -470 -47 -142 -85 -267 -85
-278 0 -43 24 -83 72 -119 110 -83 112 -85 141 -79 49 10 77 38 148 148 19 30
48 57 82 76 101 58 231 221 213 269 -9 22 -28 3 -81 -78 -42 -64 -112 -129
-141 -129 -15 0 -11 17 72 270 31 97 50 168 44 174 -12 12 -42 -40 -96 -169
-84 -201 -121 -245 -188 -219 -27 11 -18 77 29 217 25 73 45 141 45 150 0 40
-30 11 -62 -60 -119 -261 -117 -359 5 -377 26 -4 45 -11 42 -16 -3 -4 -36 -17
-73 -29 -40 -12 -88 -36 -116 -58 -38 -29 -51 -35 -64 -26 -29 19 -17 89 51
298 125 378 138 447 97 505 -44 62 -116 64 -214 4 -56 -36 -60 -37 -70 -19
-25 44 -65 75 -95 75 -37 0 -112 -33 -137 -61 -32 -35 -45 -25 -38 30 6 50 0
62 -26 53z m-200 -580 c0 -22 -56 -112 -70 -112 -19 0 -10 31 22 81 34 52 48
61 48 31z m855 -322 c-9 -17 -33 -42 -55 -56 -39 -26 -41 -26 -60 -9 -11 10
-20 26 -20 35 0 41 92 88 133 68 16 -8 16 -11 2 -38z"/>
<path d="M2379 1084 c-110 -33 -209 -171 -212 -295 -2 -49 1 -64 12 -64 10 0
21 28 35 86 33 133 81 189 198 230 46 16 58 6 31 -24 -31 -34 -47 -69 -108
-247 -31 -90 -65 -182 -77 -204 -60 -119 -131 -161 -207 -121 -71 36 -50 130
40 175 50 26 52 50 4 50 -64 0 -135 -83 -135 -157 0 -78 60 -133 145 -133 52
0 77 10 117 48 32 29 31 29 61 -29 30 -59 75 -84 152 -83 105 0 184 62 245
189 41 85 49 133 50 271 0 115 -1 124 -31 183 -35 69 -77 106 -145 127 -58 17
-115 17 -175 -2z m234 -88 c96 -89 100 -307 10 -486 -60 -119 -146 -168 -238
-138 -46 15 -63 48 -46 91 13 33 42 36 78 7 48 -38 67 -22 36 30 -19 33 -51
50 -93 50 -16 0 -31 4 -34 8 -7 12 101 339 125 378 10 18 37 48 59 68 44 40
52 39 103 -8z"/>
<path d="M3852 988 c-6 -7 -40 -94 -77 -193 -69 -185 -114 -288 -137 -315 -23
-27 -60 -49 -74 -43 -20 7 -17 41 11 130 72 230 52 285 -102 269 -37 -4 -69
-9 -71 -10 -2 -2 -23 -56 -47 -119 -73 -193 -118 -267 -161 -267 -21 0 -24 4
-24 41 0 22 21 101 46 175 44 133 53 192 26 175 -7 -4 -40 -71 -73 -147 -33
-76 -71 -158 -85 -182 -29 -48 -66 -77 -90 -68 -21 8 -15 46 26 180 16 54 30
102 30 107 0 5 -25 21 -55 36 -41 20 -57 34 -61 53 -3 14 -7 35 -10 47 -10 52
-70 71 -98 31 -20 -29 -20 -59 1 -103 16 -34 16 -36 -15 -112 -37 -91 -44
-128 -22 -128 8 0 33 35 58 80 23 43 46 83 51 88 5 5 26 6 45 3 44 -8 45 -16
10 -143 -29 -106 -27 -153 9 -178 30 -21 74 -19 108 6 l29 20 29 -20 c19 -14
45 -21 74 -21 80 0 89 8 131 116 53 133 90 206 127 249 26 29 38 35 63 33 28
-3 31 -7 34 -40 2 -21 -10 -86 -27 -146 -38 -131 -38 -156 -6 -187 19 -20 34
-25 77 -25 29 0 59 4 66 8 7 5 28 46 48 92 42 100 49 110 80 110 12 0 26 5 29
10 3 6 15 10 25 10 23 0 28 -17 32 -119 3 -62 7 -76 27 -92 57 -47 127 -4 186
113 62 124 39 134 -40 18 -48 -72 -96 -113 -111 -97 -5 4 -11 51 -15 105 -4
53 -10 107 -14 120 -7 20 2 33 59 87 36 35 66 70 66 79 0 31 -11 24 -177 -107
-36 -28 -63 -43 -63 -35 0 7 18 70 39 139 21 68 41 135 42 148 4 27 -13 38
-29 19z"/>
<path d="M3260 927 c0 -31 24 -41 45 -20 21 21 14 37 -18 41 -23 3 -27 0 -27
-21z"/>
</g>
</svg>
